<svg width="16" height="21" viewBox="0 0 16 21" fill="none" xmlns="http://www.w3.org/2000/svg">
    <path d="M7.99002 4.00003V1.21003C7.99002 0.760031 7.45002 0.540031 7.14002 0.860031L3.35002 4.65003C3.15002 4.85003 3.15002 5.16003 3.35002 5.36003L7.14002 9.15003C7.45002 9.46003 7.99002 9.24003 7.99002 8.80003V6.00003C11.72 6.00003 14.67 9.42003 13.85 13.29C13.38 15.56 11.54 17.39 9.28002 17.86C5.71002 18.61 2.53002 16.16 2.05002 12.85C1.99002 12.37 1.57002 12 1.07002 12C0.470018 12 -0.00998177 12.53 0.0700182 13.13C0.690018 17.52 4.87002 20.77 9.60002 19.85C12.72 19.24 15.23 16.73 15.84 13.61C16.83 8.48003 12.94 4.00003 7.99002 4.00003ZM6.89002 15H6.04002V11.74L5.03002 12.05V11.36L6.80002 10.73H6.89002V15ZM11.17 13.24C11.17 13.56 11.14 13.84 11.07 14.06C11 14.28 10.9 14.48 10.78 14.63C10.66 14.78 10.5 14.89 10.33 14.96C10.16 15.03 9.96002 15.06 9.74002 15.06C9.52002 15.06 9.33002 15.03 9.15002 14.96C8.97002 14.89 8.82002 14.78 8.69002 14.63C8.56002 14.48 8.46002 14.29 8.39002 14.06C8.32002 13.83 8.28002 13.56 8.28002 13.24V12.5C8.28002 12.18 8.31002 11.9 8.38002 11.68C8.45002 11.46 8.55002 11.26 8.67002 11.11C8.79002 10.96 8.95002 10.85 9.12002 10.78C9.29002 10.71 9.49002 10.68 9.71002 10.68C9.93002 10.68 10.12 10.71 10.3 10.78C10.48 10.85 10.63 10.96 10.76 11.11C10.89 11.26 10.99 11.45 11.06 11.68C11.13 11.91 11.17 12.18 11.17 12.5V13.24ZM10.32 12.38C10.32 12.19 10.31 12.03 10.28 11.9C10.25 11.77 10.21 11.67 10.16 11.59C10.11 11.51 10.05 11.45 9.97002 11.42C9.89002 11.39 9.81002 11.37 9.72002 11.37C9.63002 11.37 9.54002 11.39 9.47002 11.42C9.40002 11.45 9.33002 11.51 9.28002 11.59C9.23002 11.67 9.19002 11.77 9.16002 11.9C9.13002 12.03 9.12002 12.19 9.12002 12.38V13.35C9.12002 13.54 9.13002 13.7 9.16002 13.83C9.19002 13.96 9.23002 14.07 9.28002 14.15C9.33002 14.23 9.39002 14.29 9.47002 14.32C9.55002 14.35 9.63002 14.37 9.72002 14.37C9.81002 14.37 9.90002 14.35 9.97002 14.32C10.04 14.29 10.11 14.23 10.16 14.15C10.21 14.07 10.25 13.96 10.27 13.83C10.29 13.7 10.31 13.54 10.31 13.35V12.38H10.32Z" fill="#323232" />
</svg>