<svg width="24" height="24" viewBox="0 0 24 24" fill="none" xmlns="http://www.w3.org/2000/svg">
    <path d="M18.9201 12.9999C18.4201 12.9999 18.0101 13.3699 17.9401 13.8599C17.4601 17.2299 14.1701 19.6999 10.5201 18.8199C8.27012 18.2799 6.61012 16.5499 6.13012 14.2899C5.32012 10.4199 8.27012 6.99994 12.0001 6.99994V9.78994C12.0001 10.2399 12.5401 10.4599 12.8501 10.1399L16.6401 6.34994C16.8401 6.14994 16.8401 5.83994 16.6401 5.63994L12.8501 1.84994C12.5401 1.53994 12.0001 1.75994 12.0001 2.20994V4.99994C7.06012 4.99994 3.16012 9.47994 4.16012 14.5999C4.76012 17.7099 7.06012 20.0999 10.1501 20.7899C14.9801 21.8699 19.3001 18.5899 19.9201 14.1199C20.0101 13.5299 19.5201 12.9999 18.9201 12.9999ZM10.9001 15.9999V11.7299H10.8101L9.04012 12.3599V13.0499L10.0501 12.7399V15.9999H10.9001ZM14.3201 11.7799C14.1401 11.7099 13.9501 11.6799 13.7301 11.6799C13.5101 11.6799 13.3201 11.7099 13.1401 11.7799C12.9601 11.8499 12.8101 11.9599 12.6901 12.1099C12.5701 12.2599 12.4601 12.4499 12.4001 12.6799C12.3401 12.9099 12.3001 13.1799 12.3001 13.4999V14.2399C12.3001 14.5599 12.3401 14.8399 12.4101 15.0599C12.4801 15.2799 12.5801 15.4799 12.7101 15.6299C12.8401 15.7799 12.9901 15.8899 13.1701 15.9599C13.3501 16.0299 13.5401 16.0599 13.7601 16.0599C13.9801 16.0599 14.1701 16.0299 14.3501 15.9599C14.5301 15.8899 14.6801 15.7799 14.8001 15.6299C14.9201 15.4799 15.0201 15.2899 15.0901 15.0599C15.1601 14.8299 15.1901 14.5599 15.1901 14.2399V13.4999C15.1901 13.1799 15.1501 12.8999 15.0801 12.6799C15.0101 12.4599 14.9101 12.2599 14.7801 12.1099C14.6501 11.9599 14.4901 11.8499 14.3201 11.7799ZM14.3301 14.3499C14.3301 14.5399 14.3201 14.6999 14.2901 14.8299C14.2601 14.9599 14.2301 15.0699 14.1801 15.1499C14.1301 15.2299 14.0701 15.2899 13.9901 15.3199C13.9101 15.3499 13.8301 15.3699 13.7401 15.3699C13.6501 15.3699 13.5601 15.3499 13.4901 15.3199C13.4201 15.2899 13.3501 15.2299 13.3001 15.1499C13.2501 15.0699 13.2101 14.9599 13.1801 14.8299C13.1501 14.6999 13.1401 14.5399 13.1401 14.3499V13.3799C13.1401 13.1899 13.1501 13.0299 13.1801 12.8999C13.2101 12.7699 13.2401 12.6699 13.3001 12.5899C13.3601 12.5099 13.4101 12.4499 13.4901 12.4199C13.5701 12.3899 13.6501 12.3699 13.7401 12.3699C13.8301 12.3699 13.9201 12.3899 13.9901 12.4199C14.0601 12.4499 14.1301 12.5099 14.1801 12.5899C14.2301 12.6699 14.2701 12.7699 14.3001 12.8999C14.3301 13.0299 14.3401 13.1899 14.3401 13.3799V14.3499H14.3301Z" fill="#323232" />
</svg>